<svg xmlns="http://www.w3.org/2000/svg" viewBox="0 0 680 292" width="100%" role="img"><defs><marker id="ah" viewBox="0 0 10 10" refX="8" refY="5" markerWidth="6" markerHeight="6" orient="auto-start-reverse"><path d="M2 1L8 5L2 9" fill="none" stroke="#E24B4A" stroke-width="2" stroke-linecap="round" stroke-linejoin="round"/></marker></defs><title>单关节屈伸 动作示意</title><desc>两帧简笔示意：左侧为起始位，右侧为结束位，箭头表示发力方向。</desc><rect x="0" y="0" width="680" height="292" rx="12" fill="#FFFFFF" stroke="#E4E4E9" stroke-width="1"/><text x="24" y="29" font-family="'Segoe UI','Microsoft YaHei','PingFang SC',sans-serif" font-size="15" font-weight="500" fill="#2C2C2A">动作示意：单关节屈伸</text><text x="24" y="49" font-family="'Segoe UI','Microsoft YaHei','PingFang SC',sans-serif" font-size="11.5" fill="#6B6B72">以弯举为例（臂屈伸方向相反） · 简笔示意，仅表方向与行程</text><g transform="translate(110,62)"><line x1="6" y1="190" x2="194" y2="190" stroke="#D6D6DB" stroke-width="2"/><polyline points="110,122 112,154 114,186" fill="none" stroke="#B4B2A9" stroke-width="18" stroke-linecap="round" stroke-linejoin="round"/><polyline points="110,122 112,154 114,186" fill="none" stroke="#DCDCE1" stroke-width="15" stroke-linecap="round" stroke-linejoin="round"/><polyline points="110,62 110,122" fill="none" stroke="#B4B2A9" stroke-width="20" stroke-linecap="round" stroke-linejoin="round"/><polyline points="110,62 110,122" fill="none" stroke="#DCDCE1" stroke-width="17" stroke-linecap="round" stroke-linejoin="round"/><polyline points="110,62 112,102 116,140" fill="none" stroke="#B4B2A9" stroke-width="14" stroke-linecap="round" stroke-linejoin="round"/><polyline points="110,62 112,102 116,140" fill="none" stroke="#DCDCE1" stroke-width="11" stroke-linecap="round" stroke-linejoin="round"/><circle cx="110" cy="40" r="11" fill="#DCDCE1" stroke="#B4B2A9" stroke-width="1"/><rect x="105" y="135.5" width="22" height="9" rx="4" fill="#EDEDF1" stroke="#5F5E5A" stroke-width="2"/><circle cx="116" cy="140" r="2" fill="#5F5E5A"/></g><g transform="translate(370,62)"><line x1="6" y1="190" x2="194" y2="190" stroke="#D6D6DB" stroke-width="2"/><polyline points="110,122 112,154 114,186" fill="none" stroke="#B4B2A9" stroke-width="18" stroke-linecap="round" stroke-linejoin="round"/><polyline points="110,122 112,154 114,186" fill="none" stroke="#DCDCE1" stroke-width="15" stroke-linecap="round" stroke-linejoin="round"/><polyline points="110,62 110,122" fill="none" stroke="#B4B2A9" stroke-width="20" stroke-linecap="round" stroke-linejoin="round"/><polyline points="110,62 110,122" fill="none" stroke="#DCDCE1" stroke-width="17" stroke-linecap="round" stroke-linejoin="round"/><polyline points="110,62 112,102 150,86" fill="none" stroke="#B4B2A9" stroke-width="14" stroke-linecap="round" stroke-linejoin="round"/><polyline points="110,62 112,102 150,86" fill="none" stroke="#DCDCE1" stroke-width="11" stroke-linecap="round" stroke-linejoin="round"/><circle cx="110" cy="40" r="11" fill="#DCDCE1" stroke="#B4B2A9" stroke-width="1"/><rect x="139" y="81.5" width="22" height="9" rx="4" fill="#EDEDF1" stroke="#5F5E5A" stroke-width="2"/><circle cx="150" cy="86" r="2" fill="#5F5E5A"/></g><g transform="translate(110,62)"><path d="M126 148 Q168 140 158 102" fill="none" stroke="#E24B4A" stroke-width="2.5" marker-end="url(#ah)"/></g><text x="210" y="276" text-anchor="middle" font-family="'Segoe UI','Microsoft YaHei','PingFang SC',sans-serif" font-size="12" fill="#6B6B72">起始位</text><text x="470" y="276" text-anchor="middle" font-family="'Segoe UI','Microsoft YaHei','PingFang SC',sans-serif" font-size="12" fill="#6B6B72">结束位</text></svg>