<svg xmlns="http://www.w3.org/2000/svg" viewBox="0 0 680 292" width="100%" role="img"><defs><marker id="ah" viewBox="0 0 10 10" refX="8" refY="5" markerWidth="6" markerHeight="6" orient="auto-start-reverse"><path d="M2 1L8 5L2 9" fill="none" stroke="#E24B4A" stroke-width="2" stroke-linecap="round" stroke-linejoin="round"/></marker></defs><title>单关节外展 动作示意</title><desc>两帧简笔示意：左侧为起始位，右侧为结束位，箭头表示发力方向。</desc><rect x="0" y="0" width="680" height="292" rx="12" fill="#FFFFFF" stroke="#E4E4E9" stroke-width="1"/><text x="24" y="29" font-family="'Segoe UI','Microsoft YaHei','PingFang SC',sans-serif" font-size="15" font-weight="500" fill="#2C2C2A">动作示意：单关节外展</text><text x="24" y="49" font-family="'Segoe UI','Microsoft YaHei','PingFang SC',sans-serif" font-size="11.5" fill="#6B6B72">侧平举 / 前平举（正视图） · 简笔示意，仅表方向与行程</text><g transform="translate(110,62)"><line x1="6" y1="190" x2="194" y2="190" stroke="#D6D6DB" stroke-width="2"/><polyline points="92,126 90,158 88,186" fill="none" stroke="#B4B2A9" stroke-width="18" stroke-linecap="round" stroke-linejoin="round"/><polyline points="92,126 90,158 88,186" fill="none" stroke="#DCDCE1" stroke-width="15" stroke-linecap="round" stroke-linejoin="round"/><polyline points="108,126 110,158 112,186" fill="none" stroke="#B4B2A9" stroke-width="18" stroke-linecap="round" stroke-linejoin="round"/><polyline points="108,126 110,158 112,186" fill="none" stroke="#DCDCE1" stroke-width="15" stroke-linecap="round" stroke-linejoin="round"/><polyline points="100,60 100,128" fill="none" stroke="#B4B2A9" stroke-width="26" stroke-linecap="round" stroke-linejoin="round"/><polyline points="100,60 100,128" fill="none" stroke="#DCDCE1" stroke-width="23" stroke-linecap="round" stroke-linejoin="round"/><polyline points="86,66 70,96 58,126" fill="none" stroke="#B4B2A9" stroke-width="14" stroke-linecap="round" stroke-linejoin="round"/><polyline points="86,66 70,96 58,126" fill="none" stroke="#DCDCE1" stroke-width="11" stroke-linecap="round" stroke-linejoin="round"/><polyline points="114,66 130,96 142,126" fill="none" stroke="#B4B2A9" stroke-width="14" stroke-linecap="round" stroke-linejoin="round"/><polyline points="114,66 130,96 142,126" fill="none" stroke="#DCDCE1" stroke-width="11" stroke-linecap="round" stroke-linejoin="round"/><circle cx="100" cy="38" r="12" fill="#DCDCE1" stroke="#B4B2A9" stroke-width="1"/><rect x="47" y="121.5" width="22" height="9" rx="4" fill="#EDEDF1" stroke="#5F5E5A" stroke-width="2"/><circle cx="58" cy="126" r="2" fill="#5F5E5A"/><rect x="131" y="121.5" width="22" height="9" rx="4" fill="#EDEDF1" stroke="#5F5E5A" stroke-width="2"/><circle cx="142" cy="126" r="2" fill="#5F5E5A"/></g><g transform="translate(370,62)"><line x1="6" y1="190" x2="194" y2="190" stroke="#D6D6DB" stroke-width="2"/><polyline points="92,126 90,158 88,186" fill="none" stroke="#B4B2A9" stroke-width="18" stroke-linecap="round" stroke-linejoin="round"/><polyline points="92,126 90,158 88,186" fill="none" stroke="#DCDCE1" stroke-width="15" stroke-linecap="round" stroke-linejoin="round"/><polyline points="108,126 110,158 112,186" fill="none" stroke="#B4B2A9" stroke-width="18" stroke-linecap="round" stroke-linejoin="round"/><polyline points="108,126 110,158 112,186" fill="none" stroke="#DCDCE1" stroke-width="15" stroke-linecap="round" stroke-linejoin="round"/><polyline points="100,60 100,128" fill="none" stroke="#B4B2A9" stroke-width="26" stroke-linecap="round" stroke-linejoin="round"/><polyline points="100,60 100,128" fill="none" stroke="#DCDCE1" stroke-width="23" stroke-linecap="round" stroke-linejoin="round"/><polyline points="86,66 66,74 44,68" fill="none" stroke="#B4B2A9" stroke-width="14" stroke-linecap="round" stroke-linejoin="round"/><polyline points="86,66 66,74 44,68" fill="none" stroke="#DCDCE1" stroke-width="11" stroke-linecap="round" stroke-linejoin="round"/><polyline points="114,66 134,74 156,68" fill="none" stroke="#B4B2A9" stroke-width="14" stroke-linecap="round" stroke-linejoin="round"/><polyline points="114,66 134,74 156,68" fill="none" stroke="#DCDCE1" stroke-width="11" stroke-linecap="round" stroke-linejoin="round"/><circle cx="100" cy="38" r="12" fill="#DCDCE1" stroke="#B4B2A9" stroke-width="1"/><rect x="33" y="63.5" width="22" height="9" rx="4" fill="#EDEDF1" stroke="#5F5E5A" stroke-width="2"/><circle cx="44" cy="68" r="2" fill="#5F5E5A"/><rect x="145" y="63.5" width="22" height="9" rx="4" fill="#EDEDF1" stroke="#5F5E5A" stroke-width="2"/><circle cx="156" cy="68" r="2" fill="#5F5E5A"/></g><g transform="translate(110,62)"><path d="M152 122 Q170 116 160 76" fill="none" stroke="#E24B4A" stroke-width="2.5" marker-end="url(#ah)"/></g><text x="210" y="276" text-anchor="middle" font-family="'Segoe UI','Microsoft YaHei','PingFang SC',sans-serif" font-size="12" fill="#6B6B72">起始位</text><text x="470" y="276" text-anchor="middle" font-family="'Segoe UI','Microsoft YaHei','PingFang SC',sans-serif" font-size="12" fill="#6B6B72">结束位</text></svg>